<?xml version="1.0" encoding="utf-8"?>
<!-- Generator: Adobe Illustrator 23.0.1, SVG Export Plug-In . SVG Version: 6.00 Build 0)  -->
<svg version="1.1" id="Laag_1" xmlns="http://www.w3.org/2000/svg" xmlns:xlink="http://www.w3.org/1999/xlink" x="0px" y="0px"
	 viewBox="0 0 141.7 141.7" style="enable-background:new 0 0 141.7 141.7;" xml:space="preserve">
<style type="text/css">
	.st0{fill:#5522FA;}
</style>
<path class="st0" d="M131.9,70.8c0,10.7,0,21.4,0,32.1c0,2.4-0.8,3.9-2.9,5.1c-18.6,10.7-37.2,21.4-55.7,32.1c-2,1.2-3.7,1.2-5.7,0
	c-18.6-10.8-37.2-21.6-55.9-32.3c-2-1.1-2.7-2.5-2.7-4.8c0.1-21.6,0.1-43.2,0-64.8c0-2.2,0.7-3.5,2.6-4.6
	C30.3,23,48.9,12.2,67.5,1.4c2.1-1.2,3.8-1.2,5.9,0c18.5,10.7,37,21.4,55.5,32c2.2,1.2,3,2.8,3,5.3
	C131.9,49.4,131.9,60.1,131.9,70.8z M125.1,70.8c0-9.9,0-19.8,0-29.7c0-1.3-0.3-2.2-1.5-2.9c-17.3-9.9-34.5-19.9-51.8-29.8
	c-0.7-0.4-2.2-0.4-2.9,0.1C51.9,18.3,34.8,28.2,17.8,38c-1.4,0.8-2.1,1.7-2.1,3.4c0.1,19.6,0,39.1,0,58.7c0,1.5,0.4,2.4,1.8,3.2
	c17.1,9.8,34.2,19.7,51.3,29.6c1.3,0.7,2.2,0.7,3.4,0c17-9.8,33.9-19.6,51-29.4c1.5-0.8,2-1.8,2-3.5
	C125.1,90.3,125.1,80.5,125.1,70.8z"/>
<path class="st0" d="M70.3,56.2c7,0,13.9,0,20.9,0c2.6,0,2.9,0.4,1.6,2.8c-7,12.8-14,25.6-21,38.3c-0.4,0.6-1,1.1-1.6,1.6
	c-0.5-0.6-1.2-1.1-1.5-1.7c-7-12.8-14.1-25.7-21.1-38.5c-1.2-2.1-0.9-2.5,1.5-2.5C56.2,56.2,63.2,56.2,70.3,56.2z"/>
<path class="st0" d="M63.8,103.9c-8-1.3-15.7-2.6-23.4-3.8c-4.8-0.8-9.6-1.7-14.5-2.4c-1.7-0.3-2.1-0.9-1.4-2.5
	c4.9-11.4,9.7-22.9,14.6-34.3c0.3-0.6,0.9-1,1.4-1.5c0.4,0.4,1,0.8,1.3,1.3c7.7,13.5,15.3,27.1,23,40.7c0.4,0.6,0.4,1.5,0.4,2.2
	C65.1,103.8,64.1,103.9,63.8,103.9z"/>
<path class="st0" d="M75.8,104c-1.2-0.1-0.8-1.1-0.3-2.1c2.8-5,5.6-10,8.4-14.9c4.9-8.6,9.7-17.2,14.6-25.8c0.4-0.7,1.1-1.2,1.7-1.8
	c0.5,0.7,1.2,1.3,1.5,2c4.7,11.1,9.4,22.2,14.1,33.3c0.9,2.2,0.8,2.5-1.7,2.9c-12,2-24,4-36.1,6C77.5,103.9,76.9,103.9,75.8,104z"/>
<path class="st0" d="M70.5,48.8c-7.1,0-14.2,0-21.3,0c-0.7,0-1.3-0.3-2-0.5c0.2-0.6,0.4-1.4,0.8-1.9c6.9-9,13.9-17.9,20.8-26.9
	c1.5-1.9,1.8-1.9,3.4,0.1c6.9,8.8,13.8,17.6,20.6,26.5c0.5,0.6,0.6,1.4,0.9,2.1c-0.8,0.2-1.6,0.6-2.4,0.6
	C84.4,48.9,77.5,48.8,70.5,48.8z"/>
<path class="st0" d="M67.6,118c0,2,0,4,0,5.9c0,2.6-0.6,2.9-2.8,1.6c-9-5.2-17.9-10.5-26.9-15.7c-2.5-1.5-5.1-2.9-7.6-4.5
	c-0.7-0.4-1.1-1.3-1.7-2c0.8-0.1,1.6-0.4,2.4-0.2c11.1,1.9,22.2,3.9,33.2,5.8c3.3,0.6,3.3,0.6,3.3,3.9
	C67.6,114.6,67.6,116.3,67.6,118z"/>
<path class="st0" d="M73.6,117.8c0-1.8,0.1-3.7,0-5.5c-0.2-2,0.5-2.9,2.5-3.2c9.4-1.6,18.7-3.3,28-5c2-0.4,4-0.8,6-1
	c0.7-0.1,1.4,0.2,2.1,0.3c-0.4,0.6-0.8,1.4-1.4,1.7c-7.7,4.6-15.5,9.1-23.3,13.7c-3.9,2.3-7.8,4.6-11.7,6.9
	c-1.9,1.1-2.3,0.8-2.3-1.3C73.6,122.2,73.6,120,73.6,117.8z"/>
<path class="st0" d="M119,91.8c-0.3-0.6-0.7-1.2-1-1.8c-4.2-11.2-8.3-22.3-12.6-33.5c-0.7-1.8-0.4-2.7,1.3-3.7
	c3.2-1.8,6.3-3.9,9.5-5.9c2.3-1.4,2.7-1.2,2.8,1.5c0.3,10.7,0.5,21.5,0.8,32.2c0.1,2.9,0.3,5.7,0.4,8.5c0,0.8-0.3,1.7-0.4,2.6
	C119.6,91.8,119.3,91.8,119,91.8z"/>
<path class="st0" d="M20.7,90.8c-0.1-0.8-0.3-1.6-0.3-2.5c0.1-4.8,0.2-9.6,0.3-14.5c0.2-8.4,0.3-16.8,0.6-25.2
	c0-0.8,0.4-1.6,0.6-2.4c0.8,0.3,1.7,0.4,2.4,0.8c3.2,1.9,6.3,4,9.5,5.9c1.4,0.8,1.9,1.7,1.2,3.4c-4.2,11-8.4,22-12.6,32.9
	c-0.2,0.6-0.6,1.2-1,1.8C21.3,91,21,90.9,20.7,90.8z"/>
<path class="st0" d="M39,48.6c-0.7-0.3-1.2-0.5-1.6-0.8c-3.5-2-7-4-10.5-6c-2-1.2-2-1.7-0.1-2.8c11.3-6.8,22.6-13.6,33.9-20.3
	c0.5-0.3,1.3-0.2,1.9-0.3c-0.2,0.7-0.2,1.4-0.6,1.9c-7.2,9.1-14.4,18.1-21.6,27.1C40,47.9,39.5,48.2,39,48.6z"/>
<path class="st0" d="M115.7,40.4c-0.5,0.5-0.8,0.9-1.2,1.2c-3.8,2.2-7.6,4.4-11.5,6.4c-0.6,0.3-2.1,0-2.5-0.6
	c-7.3-9-14.5-18-21.7-27.1c-0.4-0.5-0.3-1.3-0.5-1.9c0.7,0.1,1.4,0,2,0.4c11.3,6.8,22.6,13.5,33.9,20.3
	C114.6,39.4,115,39.9,115.7,40.4z"/>
</svg>
