<?xml version="1.0" encoding="utf-8"?>
<!-- Generator: Adobe Illustrator 23.0.1, SVG Export Plug-In . SVG Version: 6.00 Build 0)  -->
<svg version="1.1" id="Layer_1" xmlns="http://www.w3.org/2000/svg" xmlns:xlink="http://www.w3.org/1999/xlink" x="0px" y="0px"
	 viewBox="0 0 154.9 46.1" style="enable-background:new 0 0 154.9 46.1;" xml:space="preserve">
<style type="text/css">
	.st0{fill:#FFFFFF;}
	.st1{fill:#3748E2;}
	.st2{fill:#4732F0;}
	.st3{fill:#6E57F5;}
	.st4{fill:#C1B7FA;}
	.st5{fill:#6D76EB;}
	.st6{fill:#D8CFFD;}
	.st7{fill:#9F8AFA;}
</style>
<g>
	<g>
		<path class="st0" d="M0,8.7C0,5.8,0,2.9,0,0c3.3,0,6.6,0,10,0c0,0,0,0,0,0.1c0,2.1,0,4.3,0,6.4c0,0,0,0.1,0,0.2
			c6.9,0,13.8,0,20.7,0c0,0.1,0,0.2,0,0.2c0,6,0,12,0,18c0,0.7-0.1,1.3-0.3,2c-0.1,0.3-0.2,0.7-0.4,1c-0.1,0.2-0.2,0.4-0.3,0.5
			c-0.4,0.8-1,1.4-1.7,1.9c-1.7,1.3-3.6,2.1-5.7,2.3c-0.1,0-0.3,0-0.4,0c0,2.2,0,4.4,0,6.5l0,0c-0.6,0-1.2-0.1-1.7-0.1
			c-1.2-0.1-2.4-0.4-3.5-0.8c-2.1-0.8-4-2.1-5.4-3.8c-1.1-1.4-2-2.9-2.6-4.6c-0.2-0.6-0.4-1.2-0.6-1.7c0,0,0-0.1,0-0.1
			C8.1,28,8,27.8,8,27.7c-0.1-0.3-0.1-0.7-0.2-1c0,0,0-0.1,0-0.1c0-0.1,0-0.2-0.1-0.3c0,0,0-0.1,0-0.1c0-0.1,0-0.3-0.1-0.4
			c0,0,0-0.1,0-0.1c0-0.1,0-0.1,0-0.2c0,0,0,0,0-0.1c0-0.1,0-0.1,0-0.2c0,0,0-0.1,0-0.1c0-0.1,0-0.2,0-0.3c0,0,0,0,0-0.1
			c0-0.1,0-0.2,0-0.3c0,0,0-0.1,0-0.1c0-0.2,0-0.3,0-0.5c0-0.1,0-0.2,0-0.3c0-0.3,0-0.6,0-0.9c0-0.1,0-0.2,0-0.3c0-2.3,0-4.6,0-6.9
			c0-0.1,0-0.1,0-0.2c0,0,0,0,0-0.1c0-2.1,0-4.1,0-6.2c0,0,0-0.1,0-0.1c-0.1,0-0.1,0-0.2,0c-2.3,0-4.6,0-7,0C0.2,8.7,0.1,8.7,0,8.7
			C0.1,8.7,0.1,8.7,0,8.7z"/>
		<path class="st1" d="M30,27.9c0.1-0.3,0.3-0.7,0.4-1c0.2-0.6,0.3-1.3,0.3-2c0-6,0-12,0-18c0-0.1,0-0.1,0-0.2c-6.9,0-13.8,0-20.7,0
			c0-0.1,0-0.1,0-0.2c0-2.1,0-4.3,0-6.4c0,0,0,0,0-0.1c9.3,0,18.5,0,27.8,0c0,8.3,0,16.5,0,24.8c-0.1,0.1-0.1,0.2,0,0.3
			c0,0,0,0.1,0,0.1c0,0,0,0.1,0,0.1c0,0.2,0,0.3,0,0.5c-0.2,1.6-0.7,3.2-1.3,4.7c-0.2,0.4-0.4,0.7-0.6,1.1c-0.1-0.1-0.2-0.1-0.3-0.2
			c-0.1-0.1-0.2-0.1-0.3-0.2c0,0,0,0-0.1,0c-0.2,0-0.3-0.2-0.4-0.3c-0.1-0.1-0.1-0.1-0.2-0.2c0-0.1-0.1-0.1-0.1-0.1
			c-0.1,0-0.2-0.1-0.3-0.2c-0.1-0.1-0.2-0.1-0.3-0.2c-0.1,0-0.3-0.1-0.3-0.1c-0.1-0.1-0.2-0.2-0.3-0.3c0-0.1-0.1-0.1-0.2-0.1
			c-0.1,0-0.2,0-0.2-0.1c-0.1-0.1-0.1-0.2-0.2-0.2c0,0-0.1-0.1-0.1-0.1c0-0.1-0.1-0.1-0.2-0.1c0,0-0.1,0-0.1,0
			c-0.1-0.1-0.3-0.1-0.4-0.2c-0.1-0.1-0.2-0.1-0.3-0.3c0,0-0.1,0-0.1-0.1c-0.1-0.1-0.3-0.2-0.4-0.3c-0.1-0.1-0.2-0.2-0.3-0.1
			C30.4,28.2,30.3,28,30,27.9C30,27.9,30,27.9,30,27.9z"/>
		<path class="st2" d="M0.1,8.7c0.1,0,0.1,0,0.2,0c2.3,0,4.6,0,7,0c0.1,0,0.1,0,0.2,0c0,0.1,0,0.1,0,0.1c0,2.1,0,4.1,0,6.2
			c0,0,0,0,0,0.1c0,0.1,0,0.1,0,0.2c0,2.3,0,4.7,0,7c0,0.1,0,0.1,0,0.2c0,0.3,0,0.6,0,0.9c0,0.1-0.1,0.2,0,0.3c0,0.2,0,0.3,0,0.5
			c0,0,0,0.1,0,0.1c0,0.1,0,0.2,0,0.3c0,0,0,0,0,0.1c0,0.1,0,0.2,0,0.3c0,0,0,0.1,0,0.1c0,0.1,0,0.1,0,0.2c0,0,0,0,0,0.1
			c0,0.1,0,0.1,0,0.2c0,0,0,0.1,0,0.1c0,0.1,0,0.3,0.1,0.4c0,0,0,0.1,0,0.1c0,0.1,0,0.2,0.1,0.3c0,0,0,0.1,0,0.1
			c0.1,0.3,0.1,0.7,0.2,1c0,0.1,0.1,0.3,0.1,0.4c0,0,0,0.1,0,0.1c0.2,0.6,0.3,1.2,0.6,1.7c0.6,1.7,1.4,3.2,2.6,4.6
			c1.5,1.8,3.3,3,5.4,3.8c1.1,0.4,2.3,0.7,3.5,0.8c0.6,0.1,1.2,0.1,1.7,0.1c0,2.3,0,4.6,0,6.9c-0.1,0-0.3,0-0.4,0
			c-0.1-0.1-0.2,0-0.3,0c-0.1,0-0.1,0-0.2,0c-0.1,0-0.2,0-0.3,0c-0.1,0-0.1,0-0.2,0c-1-0.1-1.9-0.2-2.9-0.4c-1.9-0.4-3.7-1-5.4-1.9
			c-2.3-1.2-4.4-2.7-6.1-4.6c-1.2-1.3-2.3-2.8-3.1-4.4c-1-1.9-1.7-3.9-2.2-5.9c-0.1-0.6-0.2-1.1-0.3-1.7c0,0,0,0,0-0.1
			c0,0,0-0.1,0-0.1c0,0,0-0.1,0-0.1c0-0.1,0-0.1,0-0.2c0,0,0-0.1,0-0.1c0-0.2,0-0.3-0.1-0.5c0,0,0-0.1,0-0.1c0-0.1,0-0.1,0-0.2
			c0,0,0,0,0-0.1c0-0.2-0.1-0.5-0.1-0.7c0-0.1,0-0.2,0-0.3c0-0.1,0-0.1,0-0.2c0-0.1,0-0.2,0-0.3c0-5,0-10.1,0-15.1
			C0.1,8.8,0.1,8.8,0.1,8.7z"/>
		<path class="st0" d="M22,46.1c0-2.3,0-4.6,0-6.9c0,0,0,0,0,0c0.1,0,0.3,0,0.4,0c0.9-0.1,1.9-0.2,2.8-0.3c1.6-0.3,3.1-0.8,4.6-1.5
			c0.6-0.3,1.3-0.7,1.9-1.1c1.4-1,2.6-2.1,3.5-3.6c0.2-0.3,0.4-0.7,0.6-1c0.2-0.4,0.4-0.7,0.6-1.1c0.7-1.5,1.1-3.1,1.3-4.7
			c0-0.2,0-0.3,0-0.5c0,0,0-0.1,0-0.1c0,6.9,0,13.9,0,20.8C32.5,46.1,27.2,46.1,22,46.1z"/>
		<path class="st0" d="M0.1,24.9c0,0.2,0.1,0.5,0.1,0.7c0,0,0,0,0,0.1c0,0.1,0,0.1,0,0.2c0,0,0,0.1,0,0.1c0,0.2,0,0.3,0.1,0.5
			c0,0,0,0.1,0,0.1c0,0.1,0,0.1,0,0.2c0,0,0,0.1,0,0.1c0,0,0,0.1,0,0.1c0,0,0,0,0,0.1c0.1,0.6,0.2,1.1,0.3,1.7
			c0.5,2.1,1.2,4,2.2,5.9c0.9,1.6,1.9,3.1,3.1,4.4c1.8,1.9,3.8,3.5,6.1,4.6c1.7,0.9,3.5,1.5,5.4,1.9c0.9,0.2,1.9,0.3,2.9,0.4
			c0.1,0,0.1,0,0.2,0c0,0,0,0,0,0c-6.9,0-13.8,0-20.6,0C0,39.1,0,32,0.1,24.9C0.1,24.9,0.1,24.9,0.1,24.9z"/>
		<path class="st3" d="M0.1,8.7c0,0.1,0,0.1,0,0.2c0,5,0,10.1,0,15.1c0,0.1,0,0.2,0,0.3c0,0.1,0,0.1,0,0.2c0,0,0,0-0.1,0
			C0,19.3,0,14,0.1,8.7C0.1,8.7,0.1,8.7,0.1,8.7z"/>
		<path class="st4" d="M0,24.6C0.1,24.6,0.1,24.6,0,24.6c0.1,0.1,0.1,0.2,0.1,0.3c0,0,0,0-0.1,0C0,24.8,0,24.7,0,24.6z"/>
		<path class="st5" d="M37.8,25.2c-0.1-0.1-0.1-0.2,0-0.3C37.8,25,37.8,25.1,37.8,25.2z"/>
		<path class="st3" d="M21.2,46.1c0.1,0,0.2,0,0.3,0C21.4,46.1,21.3,46.1,21.2,46.1C21.2,46.1,21.2,46.1,21.2,46.1z"/>
		<path class="st6" d="M20.7,46.1C20.7,46.1,20.7,46.1,20.7,46.1c0.1,0,0.2,0,0.3,0c0,0,0,0,0,0C20.9,46.1,20.8,46.1,20.7,46.1z"/>
		<path class="st7" d="M21,46.1C21,46.1,21,46.1,21,46.1c0.1,0,0.1,0,0.2,0c0,0,0,0,0,0C21.1,46.1,21.1,46.1,21,46.1z"/>
		<path class="st2" d="M35.8,31.7c-0.2,0.3-0.4,0.7-0.6,1c-0.9,1.4-2.1,2.6-3.5,3.6c-0.6,0.4-1.2,0.8-1.9,1.1
			c-1.4,0.7-3,1.2-4.6,1.5c-0.9,0.2-1.9,0.3-2.8,0.3c-0.1,0-0.3,0-0.4,0c0-2.2,0-4.4,0-6.5c0.1,0,0.3,0,0.4,0c2.1-0.3,4-1,5.7-2.3
			c0.7-0.5,1.2-1.2,1.7-1.9c0.1-0.2,0.2-0.4,0.3-0.5c0,0,0,0,0,0c0.2,0.1,0.4,0.3,0.6,0.4c0.1-0.1,0.2,0,0.3,0.1
			c0.1,0.1,0.3,0.2,0.4,0.3c0,0,0.1,0,0.1,0.1c0,0.1,0.1,0.2,0.3,0.3c0.1,0.1,0.3,0.1,0.4,0.2c0,0,0.1,0,0.1,0c0.1,0,0.2,0,0.2,0.1
			c0,0,0,0.1,0.1,0.1c0.1,0,0.2,0.1,0.2,0.2c0,0.1,0.1,0.1,0.2,0.1c0.1,0,0.1,0,0.2,0.1c0.1,0.1,0.2,0.2,0.3,0.3
			c0.1,0.1,0.2,0.1,0.3,0.1c0.1,0,0.2,0.1,0.3,0.2c0.1,0.1,0.2,0.1,0.3,0.2c0.1,0,0.1,0,0.1,0.1c0,0.1,0.1,0.1,0.2,0.2
			c0.1,0.1,0.2,0.3,0.4,0.3c0,0,0.1,0,0.1,0c0,0.1,0.2,0.2,0.3,0.2C35.5,31.6,35.6,31.6,35.8,31.7z"/>
		<path class="st3" d="M7.4,22.4c0-0.1,0-0.1,0-0.2c0-2.3,0-4.7,0-7c0-0.1,0-0.1,0-0.2c0,0.1,0,0.1,0,0.2c0,2.3,0,4.6,0,6.9
			C7.5,22.2,7.5,22.3,7.4,22.4z"/>
		<path class="st3" d="M7.5,23.7c-0.1-0.1-0.1-0.2,0-0.3C7.5,23.5,7.5,23.6,7.5,23.7z"/>
		<path class="st3" d="M7.5,24.3c0,0-0.1-0.1,0-0.1C7.5,24.3,7.5,24.3,7.5,24.3z"/>
		<path class="st3" d="M7.5,24.7C7.5,24.7,7.5,24.7,7.5,24.7C7.5,24.7,7.5,24.7,7.5,24.7z"/>
		<path class="st3" d="M7.6,25.2C7.5,25.1,7.5,25.1,7.6,25.2C7.6,25.1,7.6,25.1,7.6,25.2z"/>
		<path class="st3" d="M7.6,25.5C7.6,25.4,7.6,25.4,7.6,25.5C7.6,25.4,7.6,25.4,7.6,25.5z"/>
		<path class="st3" d="M7.6,25.8C7.6,25.7,7.6,25.7,7.6,25.8C7.6,25.7,7.6,25.7,7.6,25.8z"/>
		<path class="st3" d="M7.7,26.3C7.7,26.3,7.7,26.2,7.7,26.3C7.7,26.2,7.7,26.3,7.7,26.3z"/>
		<path class="st3" d="M7.8,26.7C7.8,26.7,7.7,26.6,7.8,26.7C7.8,26.6,7.8,26.7,7.8,26.7z"/>
		<path class="st3" d="M8.1,28.2c0,0,0-0.1,0-0.1C8.1,28.1,8.1,28.2,8.1,28.2z"/>
		<path class="st3" d="M0.2,25.7C0.2,25.7,0.2,25.7,0.2,25.7C0.2,25.7,0.2,25.7,0.2,25.7z"/>
		<path class="st3" d="M0.2,26C0.2,26,0.2,26,0.2,26C0.3,26,0.3,26,0.2,26z"/>
		<path class="st3" d="M0.3,26.6C0.3,26.5,0.3,26.5,0.3,26.6C0.3,26.5,0.3,26.5,0.3,26.6z"/>
		<path class="st3" d="M0.3,26.8C0.3,26.8,0.3,26.8,0.3,26.8C0.4,26.8,0.4,26.8,0.3,26.8z"/>
		<path class="st3" d="M0.4,27.1C0.4,27,0.4,27,0.4,27.1C0.4,27,0.4,27,0.4,27.1z"/>
	</g>
</g>
</svg>
