<?xml version="1.0" encoding="utf-8"?>
<!-- Generator: Adobe Illustrator 24.0.1, SVG Export Plug-In . SVG Version: 6.00 Build 0)  -->
<svg version="1.1" id="Layer_1" xmlns="http://www.w3.org/2000/svg" xmlns:xlink="http://www.w3.org/1999/xlink" x="0px" y="0px"
	 viewBox="0 0 120 120" style="enable-background:new 0 0 120 120;" xml:space="preserve">
<style type="text/css">
	.st0{opacity:0.15;fill:#FFFFFF;enable-background:new    ;}
	.st1{fill:#FFFFFF;}
	.st2{opacity:0.5;fill:#377DFF;enable-background:new    ;}
	.st3{fill:#377DFF;}
	.st4{fill:none;stroke:#FFFFFF;stroke-width:3;stroke-linecap:round;stroke-linejoin:round;stroke-miterlimit:10;}
</style>
<path class="st0" d="M117.8,120H74.6c-1.2,0-2.2-1-2.2-2.2V74.6c0-1.2,1-2.2,2.2-2.2h43.2c1.2,0,2.2,1,2.2,2.2v43.2
	C120,119,119,120,117.8,120z"/>
<path class="st1" d="M107.5,111H67.2c-1.9,0-3.4-1.5-3.4-3.4V67.2c0-1.9,1.5-3.4,3.4-3.4h40.3c1.9,0,3.4,1.5,3.4,3.4v40.3
	C110.9,109.5,109.4,111,107.5,111z"/>
<path class="st2" d="M95.5,97.3H84c-0.9,0-1.7-0.8-1.7-1.7V84.1c0-0.9,0.8-1.7,1.7-1.7h11.5c0.9,0,1.7,0.8,1.7,1.7v11.5
	C97.2,96.5,96.5,97.3,95.5,97.3z"/>
<path class="st3" d="M90.6,92.4H79.2c-0.9,0-1.7-0.8-1.7-1.7V79.2c0-0.9,0.8-1.7,1.7-1.7h11.5c0.9,0,1.7,0.8,1.7,1.7v11.5
	C92.3,91.6,91.6,92.4,90.6,92.4z"/>
<circle class="st4" cx="28.8" cy="91.4" r="26.8"/>
<circle class="st0" cx="31.3" cy="94.5" r="11"/>
<circle class="st1" cx="26.3" cy="88.3" r="11"/>
<path class="st4" d="M61.1,49.2l27.1-47c0.5-0.8,1.7-0.8,2.2,0l27.1,47c0.5,0.8-0.1,1.9-1.1,1.9H62.2C61.2,51.1,60.6,50,61.1,49.2z"
	/>
<path class="st0" d="M86.1,41.2l8.1-14c0.3-0.5,1-0.5,1.3,0l8.1,14c0.3,0.5-0.1,1.1-0.6,1.1H86.7C86.1,42.3,85.8,41.7,86.1,41.2z"/>
<path class="st1" d="M79.3,36.5l8.1-14c0.3-0.5,1-0.5,1.3,0l8.1,14c0.3,0.5-0.1,1.1-0.6,1.1H80C79.4,37.6,79.1,37,79.3,36.5z"/>
</svg>
