<?xml version="1.0" encoding="utf-8"?>
<!-- Generator: Adobe Illustrator 24.0.2, SVG Export Plug-In . SVG Version: 6.00 Build 0)  -->
<svg version="1.1" id="Layer_1" xmlns="http://www.w3.org/2000/svg" xmlns:xlink="http://www.w3.org/1999/xlink" x="0px" y="0px"
	 viewBox="0 0 120 120" style="enable-background:new 0 0 120 120;" xml:space="preserve">
<style type="text/css">
	.st0{fill:none;stroke:#BDC5D1;stroke-width:3;stroke-linecap:round;stroke-linejoin:round;stroke-miterlimit:10;}
	.st1{fill:none;stroke:#377DFF;stroke-width:2;stroke-linecap:round;stroke-linejoin:round;stroke-miterlimit:10;}
	.st2{fill:#377DFF;}
	.st3{fill:#FFFFFF;}
</style>
<line class="st0" x1="103" y1="112.5" x2="103" y2="69.6"/>
<line class="st0" x1="109.1" y1="69.6" x2="109.1" y2="112.5"/>
<line class="st0" x1="10.9" y1="112.5" x2="10.9" y2="69.6"/>
<line class="st0" x1="17" y1="69.6" x2="17" y2="112.5"/>
<path class="st0" d="M41.6,57.2h-6c-1.8,0-3.3-1.5-3.3-3.3V14.7c0-1.8,1.5-3.3,3.3-3.3h48.9c1.8,0,3.3,1.5,3.3,3.3v39.2
	c0,1.8-1.5,3.3-3.3,3.3h-6.1"/>
<line class="st1" x1="61.2" y1="16" x2="64" y2="16"/>
<line class="st1" x1="36.3" y1="26.8" x2="36.3" y2="36.9"/>
<line class="st1" x1="36.3" y1="42.3" x2="36.3" y2="45.9"/>
<polyline class="st0" points="57.4,96.4 57.4,91.2 62.6,91.2 62.6,96.4 "/>
<line class="st0" x1="60" y1="91.1" x2="60" y2="86.2"/>
<polyline class="st0" points="78.9,76.2 69.4,81.6 69.4,84.4 60,86.2 50.6,84.4 50.6,81.6 41.1,76.2 "/>
<path class="st0" d="M81.3,75.4c-0.4-2.4-3.1-3.7-4.7-3.9c-2.5-0.3-8.6,0.2-12.7,0.6c-2.6,0.3-5.1,0.3-7.7,0
	c-4.1-0.4-10.2-1-12.7-0.6c-1.6,0.2-4.3,1.5-4.7,3.9c-0.1,0.6,0.5,1.2,1.1,1c2.2-0.5,7.4-1,14.2,1.5c2.3,0.9,4.3,1.2,6,1.1
	c1.7,0,3.7-0.3,6-1.1c6.8-2.5,12-2,14.2-1.5C80.8,76.5,81.4,76,81.3,75.4z"/>
<path class="st2" d="M76.4,29.5c-5.4-2.5-9-2.1-16.4-2.1S49,27,43.6,29.5c-6.8,3.2-3.5,11-2.4,13.7c2.4,5.6,3.4,8.1,3.6,14
	c0.4,11.6,5.5,9.5,8.3,8.9c2-0.4,4.7-0.6,6.8-0.6s4.8,0.2,6.8,0.6c2.8,0.5,7.9,2.7,8.3-8.9c0.2-5.9,1.2-8.4,3.6-14
	C79.9,40.5,83.2,32.6,76.4,29.5z"/>
<path class="st0" d="M55.1,71.8v-17c0-2.7,2.2-4.9,4.9-4.9l0,0c2.7,0,4.9,2.2,4.9,4.9v17"/>
<g>
	<polyline class="st0" points="33.8,107.4 33.8,102.7 60,95.8 	"/>
	<polyline class="st0" points="86.2,107.4 86.2,102.7 60,95.8 	"/>
	<line class="st0" x1="60" y1="107.4" x2="60" y2="95.8"/>
	<g>
		<line class="st0" x1="76" y1="107.4" x2="76" y2="100.1"/>
		<line class="st0" x1="44" y1="107.4" x2="44" y2="100.1"/>
	</g>
</g>
<g>
	<path class="st2" d="M47.6,110.3c0,2-1.6,3.6-3.6,3.6s-3.6-1.6-3.6-3.6s1.6-3.6,3.6-3.6C46,106.7,47.6,108.3,47.6,110.3z"/>
	<path class="st2" d="M37.4,110.3c0,2-1.6,3.6-3.6,3.6s-3.6-1.6-3.6-3.6s1.6-3.6,3.6-3.6C35.8,106.7,37.4,108.3,37.4,110.3z"/>
	<path class="st2" d="M89.8,110.3c0,2-1.6,3.6-3.6,3.6s-3.6-1.6-3.6-3.6s1.6-3.6,3.6-3.6C88.2,106.7,89.8,108.3,89.8,110.3z"/>
	<path class="st2" d="M79.6,110.3c0,2-1.6,3.6-3.6,3.6s-3.6-1.6-3.6-3.6s1.6-3.6,3.6-3.6C78,106.7,79.6,108.3,79.6,110.3z"/>
	<path class="st2" d="M63.6,110.3c0,2-1.6,3.6-3.6,3.6s-3.6-1.6-3.6-3.6s1.6-3.6,3.6-3.6C62,106.7,63.6,108.3,63.6,110.3z"/>
	<path class="st3" d="M87.6,110.3c0,0.8-0.7,1.5-1.5,1.5s-1.5-0.7-1.5-1.5s0.7-1.5,1.5-1.5C87,108.8,87.6,109.5,87.6,110.3z"/>
	<path class="st3" d="M77.5,110.5c0,0.8-0.7,1.5-1.5,1.5s-1.5-0.7-1.5-1.5s0.7-1.5,1.5-1.5S77.5,109.7,77.5,110.5z"/>
	<path class="st3" d="M61.5,110.3c0,0.8-0.7,1.5-1.5,1.5s-1.5-0.7-1.5-1.5s0.7-1.5,1.5-1.5S61.5,109.5,61.5,110.3z"/>
	<path class="st3" d="M45.5,110.3c0,0.8-0.7,1.5-1.5,1.5s-1.5-0.7-1.5-1.5s0.7-1.5,1.5-1.5S45.5,109.5,45.5,110.3z"/>
	<path class="st3" d="M35.3,110.3c0,0.8-0.7,1.5-1.5,1.5s-1.5-0.7-1.5-1.5s0.7-1.5,1.5-1.5S35.3,109.5,35.3,110.3z"/>
</g>
<polyline class="st0" points="36.8,69.1 1.6,69.1 1.6,61.9 41.6,61.9 "/>
<polyline class="st0" points="83.2,69.1 118.4,69.1 118.4,61.9 78.3,61.9 "/>
<g>
	<line class="st0" x1="117.3" y1="112.5" x2="95.4" y2="112.5"/>
	<line class="st0" x1="24.6" y1="112.5" x2="2.7" y2="112.5"/>
</g>
</svg>
